<svg style="enable-background:new 0 0 117.9 135.7" viewBox="0 0 117.9 135.7"><linearGradient id="a" x1="10.023" x2="108.663" y1="128.431" y2="3.511" gradientUnits="userSpaceOnUse"><stop style="stop-color:#ab63a7" offset="0"/><stop style="stop-color:#ca5595" offset=".64"/><stop style="stop-color:#d64d8e" offset="1"/></linearGradient><path d="M116 12.3c1.3-1.4 2-3.2 2-5.2-.1-4-3.5-7.2-7.5-7-2 .1-3.8.9-5 2.3L2.8 119.7C1 121.4 0 123.8 0 126.4c.1 5.2 4.3 9.4 9.5 9.3 2.9 0 5.4-1.3 7.1-3.4l99.4-120z" style="fill:url(#a)"/><linearGradient id="b" x1="28.901" x2="108.821" y1="47.415" y2="8.175" gradientUnits="userSpaceOnUse"><stop style="stop-color:#ed427c" offset="0"/><stop style="stop-color:#e14885" offset=".428"/><stop style="stop-color:#d64d8e" offset="1"/></linearGradient><path d="M117.9 7c-.1-4-3.5-7.1-7.5-7-1.1 0-2.2.3-3.1.8l-85.5 42c-2.2 1-3.7 3.2-3.5 5.8.2 3.3 3 5.8 6.3 5.6.9-.1 1.7-.3 2.4-.7L113.3 14c2.8-1.1 4.7-3.8 4.6-7z" style="fill:url(#b)"/><linearGradient id="c" x1="20.734" x2="90.574" y1="46.539" y2="121.059" gradientUnits="userSpaceOnUse"><stop style="stop-color:#ed427c" offset="0"/><stop style="stop-color:#ee4c77" offset=".108"/><stop style="stop-color:#f1685f" offset=".537"/><stop style="stop-color:#f27748" offset=".845"/><stop style="stop-color:#f37c3d" offset="1"/></linearGradient><path d="M93.2 106.8L28.5 44.6c-1.2-1.2-2.9-2-4.7-1.9-3.3.2-5.8 3-5.6 6.3.1 1.3.6 2.5 1.3 3.4l56.3 69.8c2.1 2.9 5.6 4.7 9.4 4.7 6.4 0 11.6-5.3 11.6-11.7 0-3.3-1.4-6.3-3.6-8.4z" style="fill:url(#c)"/><path d="M90.4 104.9c3.8 1.9-.1-.1 0 0z" style="fill:#3fbfef"/><linearGradient id="d" x1="7.955" x2="95.795" y1="68.457" y2="121.737" gradientUnits="userSpaceOnUse"><stop style="stop-color:#3fbfef" offset="0"/><stop style="stop-color:#a1aba8" offset=".329"/><stop style="stop-color:#d0936f" offset=".653"/><stop style="stop-color:#e9834c" offset=".884"/><stop style="stop-color:#f37c3d" offset="1"/></linearGradient><path d="M96.8 114.6c.1-3.7-1.8-7.5-6.5-9.8-5.5-2.8-11.1-5.5-16.6-8.3-5.5-2.7-11-5.5-16.4-8.2-5.5-2.7-11-5.5-16.5-8.2-5.5-2.8-11.1-5.6-16.6-8.3-5.4-2.7-17.8-9-17.8-9-.9-.4-1.9-.5-2.9-.3-2.5.6-4 3-3.4 5.5.3 1.2 1 2.1 1.9 2.8 0 0 .1 0 .1.1h.1s1.4.9 2.1 1.5l3.9 2.7c2.5 1.8 5 3.5 7.5 5.3L31 91.2c5 3.5 10 7.1 15 10.6 5.1 3.6 10.1 7.2 15.2 10.8 5.1 3.6 10.1 7.3 15.2 10.8.6.4 1.2.9 1.9 1.3.1.1.3.2.4.2 1.9 1.3 4.2 2.1 6.7 2.1 6.4 0 11.6-5.3 11.6-11.7-.2-.3-.2-.5-.2-.7z" style="fill:url(#d)"/><path style="fill:#000" d="M25.9 50.6h51v51h-51z"/><path style="fill:#fff" d="M30.3 92.1h19.1v3.2H30.3zm-.2-28l1.5-1.4c.4.5.8.8 1.3.8.6 0 .9-.4.9-1.2V57h2.3v5.3c0 1-.3 1.8-.8 2.3-.5.5-1.3.8-2.3.8-1.4.1-2.3-.5-2.9-1.3zm6.6-7.1h6.7v2H39v1.3h4v1.8h-4v1.3h4.5v2h-6.7V57zm9.7 2h-2.5v-2h7.3v2h-2.5v6.3h-2.3V59zm-16.1 8.3h4.3c1 0 1.8.3 2.3.7.3.3.5.8.5 1.4 0 1-.5 1.5-1.3 1.9 1 .3 1.7.9 1.7 2 0 1.4-1.2 2.3-3.1 2.3h-4.3v-8.3zm4.8 2.5c0-.5-.4-.7-1-.7h-1.5v1.5H34c.7 0 1.1-.2 1.1-.8zm-.8 2.4h-1.8v1.5h1.8c.7 0 1.1-.3 1.1-.8.1-.4-.3-.7-1.1-.7zm3.8-4.9H42c1.3 0 2.2.3 2.7.9.5.5.7 1.1.7 1.9 0 1.3-.7 2.1-1.7 2.6l2 2.9h-2.6l-1.7-2.5h-1v2.5h-2.3v-8.3zm3.8 4c.8 0 1.2-.4 1.2-1 0-.7-.5-1-1.2-1h-1.5v2h1.5z"/><path d="M48.2 67.2h2.2l3.5 8.4h-2.5l-.6-1.5h-3.2l-.6 1.5h-2.4l3.6-8.4zm2 5.1l-.9-2.3-.9 2.4h1.8zm4-5h2.3v8.3h-2.3v-8.3zm2.9 0h2.2l3.4 4.4v-4.4H65v8.3h-2L59.4 71v4.6h-2.3v-8.3zm8 7.1l1.3-1.5c.8.7 1.7 1 2.7 1 .6 0 1-.2 1-.6 0-.4-.3-.5-1.4-.8-1.8-.4-3.1-.9-3.1-2.6 0-1.5 1.2-2.7 3.2-2.7 1.4 0 2.5.4 3.4 1.1L71 69.9c-.8-.5-1.6-.8-2.3-.8-.6 0-.8.2-.8.5 0 .4.3.5 1.4.8 1.9.4 3.1 1 3.1 2.6 0 1.7-1.3 2.7-3.4 2.7-1.5 0-2.9-.4-3.9-1.3z" style="fill:#fff"/></svg>